<?xml version="1.0" encoding="utf-8"?>
<!-- Generator: Adobe Illustrator 25.3.1, SVG Export Plug-In . SVG Version: 6.00 Build 0)  -->
<svg version="1.1" id="Layer_1" xmlns="http://www.w3.org/2000/svg" xmlns:xlink="http://www.w3.org/1999/xlink" x="0px" y="0px"
	 viewBox="0 0 212 145" style="enable-background:new 0 0 212 145;" xml:space="preserve">
<style type="text/css">
	.st0{fill:none;stroke:#231F20;stroke-linecap:round;stroke-linejoin:round;stroke-miterlimit:10;}
	.st1{fill:none;stroke:#231F20;stroke-width:2;stroke-linecap:round;stroke-linejoin:round;stroke-miterlimit:10;}
	.st2{fill:#212020;stroke:#231F20;stroke-width:2;stroke-linecap:round;stroke-linejoin:round;stroke-miterlimit:10;}
</style>
<g>
	<polygon class="st0" points="179.6,1.7 98,142 3.5,35.3 151.3,100.8 	"/>
	<line class="st0" x1="179.6" y1="1.7" x2="49.7" y2="87.5"/>
	<path class="st1" d="M1,81.1c0,0,119.9-15.8,168.6-14.7"/>
	<line class="st1" x1="114.6" y1="63.6" x2="111.2" y2="69.2"/>
	<path class="st2" d="M123.7,56.1c0,0-3.8,1.3-7.7,3.8c-3.1,2-1.7,4.8,2.4,3.9C122.6,62.8,123.7,56.1,123.7,56.1z"/>
	<line class="st1" x1="68.5" y1="75.1" x2="75.1" y2="79"/>
	<path class="st2" d="M88.3,87.5c0,0-6.3-4.7-7.5-7.2s-4.5-2.7-5.4-1.3C74.5,80.5,75.2,82.8,88.3,87.5z"/>
	<path class="st1" d="M174.8,60l-7.3-6c0,0,2.9,7.8,2.7,11.8c-0.2,4.1-4.8,13.6-7.9,13.4l7.3,0"/>
	<path class="st1" d="M185.4,53.9c0,0-1.7-3.1-5.1-3.5c0,0-0.8,5.5-3.2,8.2c-2.4,2.8-4.3,5-4.5,7.7c-0.2,2.7,0.8,12,8.1,13.7"/>
	<path class="st1" d="M174.3,74.6l-5.8,6.5c0,0,7.4,1.2,7.1,7.5c-0.4,9.3,12.7,17.8,16.1,7.4"/>
	<path class="st1" d="M195.1,57.6c0,0-9.1-8.5-13.7,0.5C178.1,64.4,181,73,181,73"/>
	<path class="st1" d="M186.8,87.2c0,0,1.4,9.3,8.1,9.2s9.8-6.9,6.9-17.7c-3-10.8,2.1-6.3,2.1-6.3"/>
	<path class="st1" d="M200,62.4c0,0-12.5-4.2-13.2,4.6c-0.8,8.8,2.4,16.4,11.8,15.5"/>
	<path class="st1" d="M189.2,53.9c0,0,6.1-2.3,5.6-4.5c-0.4-2.1,4.7,6.6,9.4,10.6c9.5,7.9,8.1,24.9-1.4,26.8"/>
	<path class="st1" d="M190.5,61.9c0,0,4.4,2.6,7.1,6.7c0,0-3.5-1-3.7,3c-0.3,4,1,4.5,1,4.5s2.2,1.4,1.3-3.4"/>
	<path class="st1" d="M194.8,76c0,0-3.1-0.7-5.3,3.2"/>
	<path class="st1" d="M203.9,71.9c0,0-1.4-7-7.2-5.3"/>
	<path class="st1" d="M200,62.4c0,0-2.4-4.8-7.4-5.5c-5-0.6-3.8,3.3-5.2,7.7c0,0-3.7,8-9.2,10c0,0,2.4,2.8,3.8,7.2
		c1.9,6.1,13,10.8,16.6,0.6"/>
	<path class="st1" d="M193.3,51.8c0,0-3.7-4.9-10.5-0.5"/>
	<path class="st1" d="M179.5,53.9c0,0-5.5,0.6-5.6,4.7"/>
</g>
</svg>
